<svg width="41" height="40" viewBox="0 0 41 40" fill="none" xmlns="http://www.w3.org/2000/svg">
<g id="Icon/chevron-left-circle">
<path id="Vector" d="M35.5 20C35.5 11.7157 28.7843 5 20.5 5C12.2157 5 5.5 11.7157 5.5 20C5.5 28.2843 12.2157 35 20.5 35C28.7843 35 35.5 28.2843 35.5 20ZM38 20C38 29.665 30.165 37.5 20.5 37.5C10.835 37.5 3 29.665 3 20C3 10.335 10.835 2.5 20.5 2.5C30.165 2.5 38 10.335 38 20ZM22.1161 12.8661L15.8661 19.1161C15.378 19.6043 15.378 20.3957 15.8661 20.8839L22.1161 27.1339C22.6043 27.622 23.3957 27.622 23.8839 27.1339C24.372 26.6457 24.372 25.8543 23.8839 25.3661L18.5178 20L23.8839 14.6339C24.372 14.1457 24.372 13.3543 23.8839 12.8661C23.3957 12.378 22.6043 12.378 22.1161 12.8661Z" fill="white"/>
</g>
</svg>
