<svg width="41" height="40" viewBox="0 0 41 40" fill="none" xmlns="http://www.w3.org/2000/svg">
<g id="Icon/chevron-right-circle">
<path id="Vector" d="M35.5 20C35.5 11.7157 28.7843 5 20.5 5C12.2157 5 5.5 11.7157 5.5 20C5.5 28.2843 12.2157 35 20.5 35C28.7843 35 35.5 28.2843 35.5 20ZM38 20C38 29.665 30.165 37.5 20.5 37.5C10.835 37.5 3 29.665 3 20C3 10.335 10.835 2.5 20.5 2.5C30.165 2.5 38 10.335 38 20ZM18.8839 27.1339L25.1339 20.8839C25.622 20.3957 25.622 19.6043 25.1339 19.1161L18.8839 12.8661C18.3957 12.378 17.6043 12.378 17.1161 12.8661C16.628 13.3543 16.628 14.1457 17.1161 14.6339L22.4822 20L17.1161 25.3661C16.628 25.8543 16.628 26.6457 17.1161 27.1339C17.6043 27.622 18.3957 27.622 18.8839 27.1339Z" fill="white"/>
</g>
</svg>
