<svg width="40" height="40" viewBox="0 0 40 40" fill="none" xmlns="http://www.w3.org/2000/svg">
<path d="M12.031 24.8686C12.7332 27.3626 13.4017 29.7369 14.87 29.7369C16.3383 29.737 17.0061 27.363 17.7076 24.8692C18.2618 22.8988 18.8372 20.8536 19.845 19.8457C20.8534 18.8372 22.8954 18.2618 24.8634 17.7072C27.3516 17.006 29.7217 16.3381 29.7359 14.8705C29.7501 13.4016 27.3721 12.7331 24.8727 12.0305C22.8998 11.4759 20.8513 10.9 19.8438 9.89247C18.8357 8.88433 18.2598 6.83896 17.7049 4.86838C17.0026 2.3744 16.3341 0.000202361 14.8659 1.30931e-08C13.3977 -0.000203574 12.7299 2.37383 12.0284 4.86764C11.4741 6.83812 10.8987 8.88338 9.89091 9.89125C8.88307 10.8991 6.8379 11.4745 4.86749 12.0288C2.37376 12.7303 -0.00020318 13.3981 1.30428e-08 14.8664C0.000202879 16.3347 2.37434 17.0033 4.86823 17.7055C6.83874 18.2604 8.88402 18.8363 9.89212 19.8445C10.9002 20.8526 11.4761 22.898 12.031 24.8686ZM28.1967 36.7544C28.6648 38.4171 29.1105 40 30.0894 40C31.0682 40 31.5134 38.4174 31.9811 36.7549C32.3506 35.4412 32.7341 34.0777 33.406 33.4058C34.0783 32.7335 35.4396 32.3499 36.7516 31.9802C38.4104 31.5127 39.9905 31.0675 40 30.0891C40.0094 29.1097 38.4241 28.6641 36.7578 28.1957C35.4426 27.8259 34.0769 27.442 33.4052 26.7703C32.7331 26.0983 32.3492 24.7347 31.9793 23.421C31.5111 21.7583 31.0654 20.1755 30.0866 20.1754C29.1078 20.1752 28.6626 21.7579 28.1949 23.4205C27.8254 24.7341 27.4418 26.0976 26.77 26.7695C26.0981 27.4415 24.7346 27.825 23.421 28.1945C21.7585 28.6622 20.1759 29.1075 20.176 30.0863C20.1762 31.0652 21.7589 31.5109 23.4215 31.979C24.7352 32.349 26.0987 32.7329 26.7708 33.405C27.4428 34.0771 27.8268 35.4407 28.1967 36.7544Z" fill="url(#paint0_linear_182_215)"/>
<defs>
<linearGradient id="paint0_linear_182_215" x1="-2.98023e-07" y1="40" x2="44.5225" y2="35.0376" gradientUnits="userSpaceOnUse">
<stop stop-color="#E773A0"/>
<stop offset="0.486666" stop-color="#B67ACC"/>
<stop offset="1" stop-color="#94A8DC"/>
</linearGradient>
</defs>
</svg>
